<svg width="32" height="33" viewBox="0 0 32 33" fill="none" xmlns="http://www.w3.org/2000/svg">
<rect x="1" y="1.05176" width="30" height="30" rx="15" fill="#F46A6A" stroke="#F46A6A" stroke-width="2"/>
<mask id="mask0" mask-type="alpha" maskUnits="userSpaceOnUse" x="9" y="9" width="14" height="14">
<rect x="9.5" y="9.55176" width="13" height="13" fill="white"/>
</mask>
<g mask="url(#mask0)">
<path fill-rule="evenodd" clip-rule="evenodd" d="M21.0646 15.5642H16.0975V17.043H19.6238C19.445 19.1067 17.7279 19.9897 16.1029 19.9897C14.0284 19.9897 12.2084 18.3538 12.2084 16.0517C12.2084 13.8309 13.9417 12.1138 16.1084 12.1138C17.7821 12.1138 18.7625 13.1809 18.7625 13.1809L19.7917 12.1084C19.7917 12.1084 18.47 10.6351 16.0542 10.6351C12.9775 10.6351 10.5996 13.2351 10.5996 16.0517C10.5996 18.7872 12.8367 21.4684 16.1354 21.4684C19.0334 21.4684 21.1459 19.4805 21.1459 16.5447C21.1459 15.9217 21.0646 15.5642 21.0646 15.5642Z" fill="white"/>
</g>
</svg>
