<svg width="32" height="32" viewBox="0 0 32 32" fill="none" xmlns="http://www.w3.org/2000/svg">
<mask id="mask0" mask-type="alpha" maskUnits="userSpaceOnUse" x="0" y="0" width="32" height="32">
<rect width="32" height="32" fill="white"/>
</mask>
<g mask="url(#mask0)">
<path fill-rule="evenodd" clip-rule="evenodd" d="M8.66674 13.3333C8.36941 13.3333 8.08407 13.3787 7.80007 13.42C7.89207 13.1107 7.98674 12.796 8.13874 12.5133C8.29074 12.1027 8.52807 11.7467 8.76407 11.388C8.96141 11 9.3094 10.7373 9.56541 10.4053C9.83341 10.0827 10.1987 9.86799 10.4881 9.59999C10.7721 9.31999 11.1441 9.17999 11.4401 8.98265C11.7494 8.80532 12.0187 8.60932 12.3067 8.51599C12.5841 8.40132 12.8267 8.30265 13.0254 8.21999C13.4281 8.05332 13.6574 7.95732 13.6574 7.95732L13.0107 5.37332C13.0107 5.37332 12.7201 5.44265 12.2147 5.56532C11.9601 5.62932 11.6494 5.70399 11.2961 5.79332C10.9347 5.85999 10.5494 6.04265 10.1201 6.20932C9.69607 6.39865 9.20541 6.52665 8.74941 6.83065C8.29074 7.12132 7.7614 7.36399 7.29474 7.75332C6.84274 8.15465 6.29741 8.50265 5.89474 9.01332C5.45474 9.49065 5.02007 9.99199 4.68274 10.5627C4.29207 11.1067 4.02674 11.704 3.74674 12.2947C3.4934 12.8853 3.28941 13.4893 3.12274 14.076C2.80674 15.252 2.66541 16.3693 2.61074 17.3253C2.5654 18.2827 2.59207 19.0787 2.64807 19.6547C2.66807 19.9267 2.70541 20.1907 2.73207 20.3733C2.75474 20.5187 2.76541 20.5973 2.76541 20.5973L2.80007 20.5893C3.38007 23.2987 5.78407 25.3333 8.66674 25.3333C11.9801 25.3333 14.6667 22.6467 14.6667 19.3333C14.6667 16.02 11.9801 13.3333 8.66674 13.3333ZM23.3334 13.3333C23.036 13.3333 22.7507 13.3787 22.4667 13.42C22.5587 13.1107 22.6534 12.796 22.8054 12.5133C22.9574 12.1027 23.1947 11.7467 23.4307 11.388C23.628 11 23.976 10.7373 24.232 10.4053C24.5 10.0827 24.8654 9.86799 25.1547 9.59999C25.4387 9.31999 25.8107 9.17999 26.1067 8.98265C26.416 8.80532 26.6854 8.60932 26.9734 8.51599C27.2507 8.40132 27.4934 8.30265 27.692 8.21999C28.0947 8.05332 28.324 7.95732 28.324 7.95732L27.6774 5.37332C27.6774 5.37332 27.3867 5.44265 26.8814 5.56532C26.6267 5.62932 26.316 5.70399 25.9627 5.79332C25.6014 5.85999 25.216 6.04265 24.7867 6.20932C24.364 6.39999 23.872 6.52665 23.416 6.83199C22.9574 7.12265 22.428 7.36532 21.9614 7.75465C21.5094 8.15599 20.964 8.50399 20.5614 9.01332C20.1214 9.49065 19.6867 9.99199 19.3494 10.5627C18.9587 11.1067 18.6934 11.704 18.4134 12.2947C18.16 12.8853 17.956 13.4893 17.7894 14.076C17.4734 15.252 17.332 16.3693 17.2774 17.3253C17.232 18.2827 17.2587 19.0787 17.3147 19.6547C17.3347 19.9267 17.372 20.1907 17.3987 20.3733C17.4214 20.5187 17.432 20.5973 17.432 20.5973L17.4667 20.5893C18.0467 23.2987 20.4507 25.3333 23.3334 25.3333C26.6467 25.3333 29.3334 22.6467 29.3334 19.3333C29.3334 16.02 26.6467 13.3333 23.3334 13.3333Z" fill="#227C72"/>
</g>
</svg>
