<svg width="32" height="33" viewBox="0 0 32 33" fill="none" xmlns="http://www.w3.org/2000/svg">
<rect x="1" y="1.05176" width="30" height="30" rx="15" fill="#50A5F1" stroke="#50A5F1" stroke-width="2"/>
<mask id="mask0" mask-type="alpha" maskUnits="userSpaceOnUse" x="9" y="9" width="14" height="14">
<rect x="9.5" y="9.55176" width="13" height="13" fill="white"/>
</mask>
<g mask="url(#mask0)">
<path fill-rule="evenodd" clip-rule="evenodd" d="M21.6658 12.8018C21.2487 12.9914 20.7991 13.1159 20.3333 13.1755C20.8099 12.8884 21.1783 12.4334 21.3516 11.8864C20.902 12.1572 20.4037 12.3468 19.8783 12.4551C19.4504 11.9893 18.8491 11.7184 18.1666 11.7184C16.8937 11.7184 15.8537 12.7584 15.8537 14.0422C15.8537 14.2264 15.8754 14.4051 15.9133 14.573C13.9849 14.4755 12.2679 13.5493 11.1249 12.1464C10.9245 12.4876 10.8108 12.8884 10.8108 13.3109C10.8108 14.118 11.217 14.833 11.8454 15.2393C11.4608 15.2393 11.1033 15.1309 10.7891 14.9684C10.7891 14.9684 10.7891 14.9684 10.7891 14.9847C10.7891 16.1114 11.5908 17.0539 12.6524 17.2651C12.4574 17.3193 12.2516 17.3464 12.0404 17.3464C11.8941 17.3464 11.7479 17.3301 11.607 17.303C11.8995 18.2184 12.7499 18.9009 13.7737 18.9172C12.9829 19.5455 11.9808 19.9139 10.8866 19.9139C10.7024 19.9139 10.5183 19.903 10.3341 19.8814C11.3633 20.5422 12.5874 20.9268 13.8983 20.9268C18.1666 20.9268 20.512 17.3843 20.512 14.313C20.512 14.2101 20.512 14.1126 20.5066 14.0097C20.9616 13.6847 21.3516 13.273 21.6658 12.8018Z" fill="white"/>
</g>
</svg>
